<?xml version="1.0" encoding="utf-8"?>
<svg version="1.1" xmlns:xlink="http://www.w3.org/1999/xlink" width="379px" height="229px" xmlns="http://www.w3.org/2000/svg">
  <g transform="matrix(1 0 0 1 -847 -1151 )">
    <path d="M 847 1151  L 1226 1151  L 1226 1380  L 847 1380  L 847 1151  " fill-rule="nonzero" fill="#cccccc" stroke="none" />
    <path d="M 863 1167  L 1210 1167  L 1210 1364  L 863 1364  L 863 1167  " fill-rule="nonzero" fill="#ffffff" stroke="none" />
    <path d="M 1061.2549999999999 1219.6999999999998  C 1051.637 1219.6999999999998  1044.08 1212.1429999999998  1044.08 1202.5249999999999  C 1044.08 1192.907  1051.637 1185.35  1061.2549999999999 1185.35  C 1070.8729999999998 1185.35  1078.4299999999998 1192.907  1078.4299999999998 1202.5249999999999  C 1078.4299999999998 1212.1429999999998  1070.8729999999998 1219.6999999999998  1061.2549999999999 1219.6999999999998  " fill-rule="nonzero" fill="#cccccc" stroke="none" />
    <path d="M 869 1359  L 869 1256.7  L 953 1210.2  L 1070.6 1291.5688654353562  L 1137.8 1238.1  L 1205 1291.5688654353562  L 1205 1359  L 869 1359  " fill-rule="nonzero" fill="#169bd5" stroke="none" />
  </g>
</svg>